<?xml version="1.0" encoding="iso-8859-1"?>
<!-- Generator: Adobe Illustrator 19.0.0, SVG Export Plug-In . SVG Version: 6.00 Build 0)  -->
<svg version="1.1" id="Layer_1" xmlns="http://www.w3.org/2000/svg" xmlns:xlink="http://www.w3.org/1999/xlink" x="0px" y="0px"
	 viewBox="0 0 297 297" style="enable-background:new 0 0 297 297;" xml:space="preserve">
<g>
	<g>
		<g>
			<g>
				<circle style="fill:#32373B;" cx="148.5" cy="148.5" r="148.5"/>
			</g>
		</g>
	</g>
	<path d="M296.965,145.744l-85.738-85.738l-90.409,177.882l56.339,56.339C245.457,280.872,297,220.71,297,148.5
		C297,147.578,296.982,146.661,296.965,145.744z"/>
	<g>
		<path style="fill:#FFFFFF;" d="M115.5,203h-41c-16.542,0-30-12.056-30-26.875V96.938c0-2.762,2.238-5,5-5s5,2.238,5,5v79.188
			c0,9.305,8.972,16.875,20,16.875h41c2.762,0,5,2.238,5,5S118.262,203,115.5,203z"/>
	</g>
	<g>
		<path style="fill:#7B8387;" d="M128.286,240.429h74.428c6.785,0,12.286-5.501,12.286-12.286V68.857
			c0-6.785-5.501-12.286-12.286-12.286h-74.428c-6.785,0-12.286,5.501-12.286,12.286v159.285
			C116,234.928,121.501,240.429,128.286,240.429z"/>
	</g>
	<g>
		<path style="fill:#FFFFFF;" d="M131.536,135.857h67.928c4.675,0,8.464-3.79,8.464-8.464V73.607c0-4.675-3.79-8.464-8.464-8.464
			h-67.928c-4.675,0-8.464,3.79-8.464,8.464v53.785C123.071,132.067,126.861,135.857,131.536,135.857z"/>
	</g>
	<g>
		<circle style="fill:#FFFFFF;" cx="165.5" cy="190.929" r="42.429"/>
	</g>
	<g>
		<circle style="fill:#BDC3C7;" cx="165.5" cy="190.929" r="14.143"/>
	</g>
	<g>
		<ellipse style="fill:#FFFFFF;" cx="41.25" cy="96.938" rx="8.25" ry="14.437"/>
		<path style="fill:#FFFFFF;" d="M41.25,116.375c-7.554,0-13.25-8.356-13.25-19.438S33.696,77.5,41.25,77.5S54.5,85.856,54.5,96.938
			S48.804,116.375,41.25,116.375z M41.215,87.496C40.493,87.692,38,90.906,38,96.938s2.493,9.245,3.285,9.441
			c0.722-0.196,3.215-3.41,3.215-9.441S42.007,87.692,41.215,87.496z"/>
	</g>
	<g>
		<path style="fill:#FFFFFF;" d="M77.75,203c-2.762,0-5-2.238-5-5V63.938c0-2.762,2.238-5,5-5s5,2.238,5,5V198
			C82.75,200.762,80.512,203,77.75,203z"/>
	</g>
	<g>
		<ellipse style="fill:#FFFFFF;" cx="69.5" cy="63.938" rx="8.25" ry="14.437"/>
		<path style="fill:#FFFFFF;" d="M69.5,83.375c-7.554,0-13.25-8.356-13.25-19.438S61.946,44.5,69.5,44.5s13.25,8.356,13.25,19.438
			S77.054,83.375,69.5,83.375z M69.465,54.496c-0.722,0.196-3.215,3.41-3.215,9.441s2.493,9.245,3.285,9.441
			c0.722-0.196,3.215-3.41,3.215-9.441S70.257,54.692,69.465,54.496z"/>
	</g>
</g>
<g>
</g>
<g>
</g>
<g>
</g>
<g>
</g>
<g>
</g>
<g>
</g>
<g>
</g>
<g>
</g>
<g>
</g>
<g>
</g>
<g>
</g>
<g>
</g>
<g>
</g>
<g>
</g>
<g>
</g>
</svg>
