<?xml version="1.0" encoding="iso-8859-1"?>
<!-- Generator: Adobe Illustrator 16.0.0, SVG Export Plug-In . SVG Version: 6.00 Build 0)  -->
<!DOCTYPE svg PUBLIC "-//W3C//DTD SVG 1.1//EN" "http://www.w3.org/Graphics/SVG/1.1/DTD/svg11.dtd">
<svg version="1.1" id="Capa_1" xmlns="http://www.w3.org/2000/svg" xmlns:xlink="http://www.w3.org/1999/xlink" x="0px" y="0px"
	 width="436.309px" height="436.309px" viewBox="0 0 436.309 436.309" style="enable-background:new 0 0 436.309 436.309;"
	 xml:space="preserve">
<g>
	<path d="M76.811,17.573V418.74c0,9.706,7.864,17.569,17.57,17.569H341.93c9.698,0,17.568-7.863,17.568-17.569V17.573
		C359.498,7.867,351.628,0,341.93,0H94.381C84.675,0,76.811,7.867,76.811,17.573z M313.909,320.626
		c0,14.555-11.801,26.356-26.353,26.356h-10.76c-14.559,0-26.364,11.79-26.364,26.357v10.748c0,14.559-11.803,26.356-26.355,26.356
		h-12.733c-14.555,0-26.353-11.798-26.353-26.356V373.34c0-14.567-11.802-26.357-26.357-26.357h-10.768
		c-14.555,0-26.357-11.802-26.357-26.356v-12.728c0-14.56,11.802-26.357,26.357-26.357h10.76c14.555,0,26.357-11.806,26.357-26.356
		v-10.772c0-14.551,11.798-26.341,26.353-26.341h12.733c14.557,0,26.354,11.79,26.354,26.341v10.772
		c0,14.551,11.806,26.356,26.357,26.356h10.764c14.559,0,26.356,11.798,26.356,26.357v12.728H313.909z M111.657,47.56h213.297
		v147.86H111.657V47.56z"/>
	<path d="M210.017,382.477c-0.344,1.166-0.659,2.36-0.928,3.586h-0.046c-0.245-1.254-0.551-2.412-0.904-3.639l-1.23-4.312h-2.53
		l3.266,10.183h2.688l3.43-10.183h-2.449L210.017,382.477z"/>
	<path d="M219.224,377.936c-2.989,0-4.951,2.289-4.951,5.347c0,2.913,1.782,5.189,4.787,5.189c2.99,0,5-2.008,5-5.374
		C224.06,380.269,222.348,377.936,219.224,377.936z M219.178,386.632c-1.541,0-2.483-1.395-2.483-3.406
		c0-1.991,0.912-3.462,2.483-3.462c1.583,0,2.451,1.57,2.451,3.418C221.621,385.162,220.731,386.632,219.178,386.632z"/>
	<polygon points="227.882,378.113 225.582,378.113 225.582,388.295 231.93,388.295 231.93,386.372 227.882,386.372 	"/>
	<path d="M217.711,276.076c-21.087,0-38.187,17.088-38.187,38.179c0,21.083,17.1,38.171,38.187,38.171
		c21.075,0,38.17-17.096,38.17-38.171C255.882,293.164,238.803,276.076,217.711,276.076z M203.014,320.714v-14.848l12.121,7.422
		L203.014,320.714z M225.734,320.714h-4.705v-14.848h4.705V320.714z M233.601,320.714h-4.696v-14.848h4.696V320.714z"/>
	<polygon points="146.481,307.815 138.012,313.004 138.012,307.815 133.936,307.815 133.936,320.703 138.012,320.703 
		138.012,315.504 146.481,320.703 146.481,315.87 154.362,320.703 154.362,307.815 146.481,312.643 	"/>
	<polygon points="293.3,313.004 284.824,307.815 284.824,312.643 276.957,307.815 276.957,320.703 284.824,315.87 284.824,320.703 
		293.3,315.504 293.3,320.703 297.371,320.703 297.371,307.815 293.3,307.815 	"/>
	<path d="M213.838,245.495c0.07-1.486,0.142-3.342,0.196-4.953h0.03c0.307,1.563,0.702,3.267,1.086,4.693l1.286,4.612h2.112
		l1.455-4.677c0.463-1.395,0.966-3.102,1.348-4.629h0.03c0,1.739,0.054,3.471,0.112,4.922l0.194,4.584h2.63l-0.645-11.966h-3.549
		l-1.262,3.979c-0.409,1.326-0.816,2.905-1.138,4.283h-0.072c-0.265-1.395-0.617-2.889-1.012-4.271l-1.17-3.991h-3.603
		l-0.763,11.966h2.506L213.838,245.495z"/>
</g>
<g>
</g>
<g>
</g>
<g>
</g>
<g>
</g>
<g>
</g>
<g>
</g>
<g>
</g>
<g>
</g>
<g>
</g>
<g>
</g>
<g>
</g>
<g>
</g>
<g>
</g>
<g>
</g>
<g>
</g>
</svg>
